<svg xmlns="http://www.w3.org/2000/svg" xmlns:xlink="http://www.w3.org/1999/xlink" width="500" zoomAndPan="magnify" viewBox="0 0 375 374.999991" height="500" preserveAspectRatio="xMidYMid meet" version="1.0"><defs><filter x="0%" y="0%" width="100%" height="100%" id="45037b2e4e"><feColorMatrix values="0 0 0 0 1 0 0 0 0 1 0 0 0 0 1 0 0 0 1 0" color-interpolation-filters="sRGB"/></filter><clipPath id="b68a9f2ef7"><path d="M 46.875 46.875 L 328.125 46.875 L 328.125 328.125 L 46.875 328.125 Z M 46.875 46.875 " clip-rule="nonzero"/></clipPath><clipPath id="d0dd0a278a"><path d="M 187.5 46.875 C 109.835938 46.875 46.875 109.835938 46.875 187.5 C 46.875 265.164062 109.835938 328.125 187.5 328.125 C 265.164062 328.125 328.125 265.164062 328.125 187.5 C 328.125 109.835938 265.164062 46.875 187.5 46.875 Z M 187.5 46.875 " clip-rule="nonzero"/></clipPath><mask id="47468c4b81"><g filter="url(#45037b2e4e)"><rect x="-37.5" width="450" fill="#000000" y="-37.499999" height="449.999989" fill-opacity="0.81"/></g></mask><clipPath id="7ec9c30af3"><path d="M 1.183594 0.875 L 201 0.875 L 201 282.125 L 1.183594 282.125 Z M 1.183594 0.875 " clip-rule="nonzero"/></clipPath><clipPath id="f92179f628"><path d="M 141.808594 0.875 C 64.144531 0.875 1.183594 63.835938 1.183594 141.5 C 1.183594 219.164062 64.144531 282.125 141.808594 282.125 C 219.472656 282.125 282.433594 219.164062 282.433594 141.5 C 282.433594 63.835938 219.472656 0.875 141.808594 0.875 Z M 141.808594 0.875 " clip-rule="nonzero"/></clipPath><clipPath id="d1349b39c4"><rect x="0" width="201" y="0" height="283"/></clipPath><mask id="fc9df5dcb1"><g filter="url(#45037b2e4e)"><rect x="-37.5" width="450" fill="#000000" y="-37.499999" height="449.999989" fill-opacity="0.61"/></g></mask><clipPath id="ad8919d486"><path d="M 0.75 0.875 L 282 0.875 L 282 282.125 L 0.75 282.125 Z M 0.75 0.875 " clip-rule="nonzero"/></clipPath><clipPath id="e75f43573d"><path d="M 141.375 0.875 C 63.710938 0.875 0.75 63.835938 0.75 141.5 C 0.75 219.164062 63.710938 282.125 141.375 282.125 C 219.039062 282.125 282 219.164062 282 141.5 C 282 63.835938 219.039062 0.875 141.375 0.875 Z M 141.375 0.875 " clip-rule="nonzero"/></clipPath><clipPath id="6a2a9fd609"><rect x="0" width="282" y="0" height="283"/></clipPath><mask id="630098f48e"><g filter="url(#45037b2e4e)"><rect x="-37.5" width="450" fill="#000000" y="-37.499999" height="449.999989" fill-opacity="0.61"/></g></mask><clipPath id="2947d22964"><path d="M 1.003906 0.875 L 239 0.875 L 239 282.125 L 1.003906 282.125 Z M 1.003906 0.875 " clip-rule="nonzero"/></clipPath><clipPath id="196fe9150b"><path d="M 141.628906 0.875 C 63.964844 0.875 1.003906 63.835938 1.003906 141.5 C 1.003906 219.164062 63.964844 282.125 141.628906 282.125 C 219.292969 282.125 282.253906 219.164062 282.253906 141.5 C 282.253906 63.835938 219.292969 0.875 141.628906 0.875 Z M 141.628906 0.875 " clip-rule="nonzero"/></clipPath><clipPath id="83022fba5d"><rect x="0" width="239" y="0" height="283"/></clipPath><mask id="f00623da80"><g filter="url(#45037b2e4e)"><rect x="-37.5" width="450" fill="#000000" y="-37.499999" height="449.999989" fill-opacity="0.6"/></g></mask><clipPath id="ddf053669e"><path d="M 0.328125 0.875 L 170 0.875 L 170 282.125 L 0.328125 282.125 Z M 0.328125 0.875 " clip-rule="nonzero"/></clipPath><clipPath id="6794adf180"><path d="M 140.953125 0.875 C 63.289062 0.875 0.328125 63.835938 0.328125 141.5 C 0.328125 219.164062 63.289062 282.125 140.953125 282.125 C 218.617188 282.125 281.578125 219.164062 281.578125 141.5 C 281.578125 63.835938 218.617188 0.875 140.953125 0.875 Z M 140.953125 0.875 " clip-rule="nonzero"/></clipPath><clipPath id="a21bca7ef2"><rect x="0" width="170" y="0" height="283"/></clipPath><clipPath id="c6a515660a"><path d="M 365.1875 0 L 375 0 L 375 375 L 365.1875 375 Z M 365.1875 0 " clip-rule="nonzero"/></clipPath></defs><rect x="-37.5" width="450" fill="#ffffff" y="-37.499999" height="449.999989" fill-opacity="1"/><rect x="-37.5" width="450" fill="#ffffff" y="-37.499999" height="449.999989" fill-opacity="1"/><g clip-path="url(#b68a9f2ef7)"><g clip-path="url(#d0dd0a278a)"><path fill="#5e17eb" d="M 46.875 46.875 L 328.125 46.875 L 328.125 328.125 L 46.875 328.125 Z M 46.875 46.875 " fill-opacity="1" fill-rule="nonzero"/></g></g><g mask="url(#47468c4b81)"><g transform="matrix(1, 0, 0, 1, 174, 46)"><g clip-path="url(#d1349b39c4)"><g clip-path="url(#7ec9c30af3)"><g clip-path="url(#f92179f628)"><path fill="#cb6ce6" d="M 1.183594 0.875 L 282.433594 0.875 L 282.433594 282.125 L 1.183594 282.125 Z M 1.183594 0.875 " fill-opacity="1" fill-rule="nonzero"/></g></g></g></g></g><g mask="url(#fc9df5dcb1)"><g transform="matrix(1, 0, 0, 1, 93, 46)"><g clip-path="url(#6a2a9fd609)"><g clip-path="url(#ad8919d486)"><g clip-path="url(#e75f43573d)"><path fill="#8c52ff" d="M 0.75 0.875 L 282 0.875 L 282 282.125 L 0.75 282.125 Z M 0.75 0.875 " fill-opacity="1" fill-rule="nonzero"/></g></g></g></g></g><g mask="url(#630098f48e)"><g transform="matrix(1, 0, 0, 1, 136, 46)"><g clip-path="url(#83022fba5d)"><g clip-path="url(#2947d22964)"><g clip-path="url(#196fe9150b)"><path fill="#8c52ff" d="M 1.003906 0.875 L 282.253906 0.875 L 282.253906 282.125 L 1.003906 282.125 Z M 1.003906 0.875 " fill-opacity="1" fill-rule="nonzero"/></g></g></g></g></g><g mask="url(#f00623da80)"><g transform="matrix(1, 0, 0, 1, 205, 46)"><g clip-path="url(#a21bca7ef2)"><g clip-path="url(#ddf053669e)"><g clip-path="url(#6794adf180)"><path fill="#cb6ce6" d="M 0.328125 0.875 L 281.578125 0.875 L 281.578125 282.125 L 0.328125 282.125 Z M 0.328125 0.875 " fill-opacity="1" fill-rule="nonzero"/></g></g></g></g></g><path fill="#ffffff" d="M 0 0 L 0 375 L 375 375 L 375 0 Z M 187.5 327.953125 C 109.929688 327.953125 47.046875 265.070312 47.046875 187.5 C 47.046875 109.929688 109.929688 47.046875 187.5 47.046875 C 265.070312 47.046875 327.953125 109.929688 327.953125 187.5 C 327.953125 265.070312 265.070312 327.953125 187.5 327.953125 Z M 187.5 327.953125 " fill-opacity="1" fill-rule="nonzero"/><g clip-path="url(#c6a515660a)"><path fill="#ffffff" d="M 365.1875 0 L 450 0 L 450 375.035156 L 365.1875 375.035156 Z M 365.1875 0 " fill-opacity="1" fill-rule="nonzero"/></g></svg>